<svg xmlns="http://www.w3.org/2000/svg" width="710.40985" height="647.95797" viewBox="0 0 710.40985 647.95797" xmlns:xlink="http://www.w3.org/1999/xlink" role="img" artist="Katerina Limpitsouni" source="https://undraw.co/"><path d="M166.1564,117.90546c8.3487-46.78787,53.04582-77.94905,99.83369-69.60035,46.78787,8.3487,77.94937,53.04588,69.60067,99.83375-6.77085,37.94529-37.45011,65.60766-73.76176,70.25683l-35.69028,105.31194-71.07457-84.47181s22.13556-19.75542,36.43036-43.93366c-20.15394-19.25054-30.60088-47.90307-25.33811-77.3967Z" fill="#ed9da0"/><path d="M173.09718,214.78809s-113.68733,19.16988-128.68733,42.16988-31,56-31,56c0,0-43,214,25,244l274.68733-39.16988-33.68733-100.83012,34,101,79.53386-12.73159s-47.53386-235.26841-74.53386-251.26841c-27-16-60.75109-11.70056-60.75109-11.70056,0,0-53.74763,53.40351-83.99827-27.44796l-.5633-.02135Z" fill="#26a4f2"/><path d="M234.35198,83.56597s24.05787,7.39199,34.05787-4.60801c0,0,24,1,29,14s35,19,45,8c10-11,25-31,6-49,0,0-3-19-19-23l-9,8s-118.87599-55.90628-132.93799,1.04686c0,0-21.52687-4.05801-11.29444,8.94756,0,0-11.52977,13.36898-18.84417,38.72114-11.47969,39.78928,1.95017,82.60309,33.7639,109.11453l.00004.00003s-25.56332-67.10233-3.62533-47.46622,20.93799-25.3639,20.93799-25.3639c0,0,32.88426-19.78398,25.94213-38.39199Z" fill="#090814"/><path d="M695.55497,121.21685l-327.01201,27.71288c-6.91943.58639-12.30538,6.25775-12.53403,13.19822l-9.64485,292.76846c-.23689,7.19081,5.12962,13.33942,12.28642,14.07702l336.65687,34.69645c8.07792.83252,15.10249-5.50529,15.10249-13.62599V134.8661c0-8.02162-6.86192-14.32661-14.85488-13.64924Z" fill="#d6d6e3"/><polygon points="383.74945 177.01197 375.40985 437.24241 669.40985 463.95797 676.40985 156.95797 383.74945 177.01197" fill="#fff"/><path d="M398.944,210.64706l255.27397-14.34123c3.36201-.18888,6.19188,2.48647,6.19188,5.85378v50.364c0,3.15452-2.49595,5.74359-5.64835,5.85908l-255.27397,9.35261c-3.32.12164-6.07768-2.53686-6.07768-5.85908v-45.37537c0-3.11029,2.42876-5.67932,5.53415-5.85378Z" fill="#d6d6e3"/><path d="M578.40822,226.95801c-1.05908,0-1.94238-.83105-1.99609-1.90039-.05518-1.10254.79443-2.04199,1.89746-2.09668l60-3c1.11523-.05957,2.04248.79395,2.09766,1.89746.05518,1.10254-.79443,2.04199-1.89746,2.09668l-60,3c-.03418.00195-.06787.00293-.10156.00293Z" fill="#090814"/><path d="M548.40822,239.95801c-1.07373,0-1.96143-.85254-1.99756-1.93359-.03662-1.10352.82861-2.02832,1.93262-2.06543l90-2.99512c1.10303-.02344,2.02881.8291,2.06543,1.93262s-.82861,2.02832-1.93262,2.06543l-90,2.99512c-.02246.00098-.04492.00098-.06787.00098Z" fill="#090814"/><path d="M406.55761,241.5352l-7.5306,84.49779c-.33438,3.75189,2.56743,7.00734,6.33293,7.10472l102.89288,2.66102c3.45674.0894,6.38342-2.53245,6.67325-5.97817l7.57153-90.01708c.48254-5.73687-4.20762-10.5811-9.95709-10.28418l-98.8071,5.1028c-3.78001.19522-6.83981,3.14299-7.17581,6.9131Z" fill="#fff"/><path d="M513.04262,233.50635c1.54932,0,2.98352.63184,4.03845,1.7793,1.0531,1.14551,1.56104,2.63086,1.43054,4.18262l-7.57153,90.01709c-.10913,1.29883-1.21423,2.31592-2.51587,2.31592l-.06799-.00098-102.89307-2.66113c-.95117-.0249-1.54932-.54004-1.82104-.84473-.27197-.30518-.71533-.9585-.63086-1.90625l7.53064-84.49805c.15808-1.77441,1.6189-3.18164,3.39783-3.27344l98.80713-5.10254c.09924-.00488.19763-.00781.29578-.00781M513.04262,229.50635c-.1665,0-.33362.00439-.50208.01318l-98.80713,5.10254c-3.78003.19531-6.83984,3.14307-7.17578,6.91309l-7.53064,84.49805c-.33435,3.75146,2.5675,7.00732,6.33301,7.10449l102.89282,2.66113c.05713.00146.1145.00244.17139.00244,3.38184,0,6.2168-2.59229,6.50183-5.98047l7.57153-90.01709c.46838-5.56934-3.93774-10.29736-9.45496-10.29736h0Z" fill="#090814"/><polygon points="403.40985 313.95797 436.40985 272.95797 456.40985 297.95797 481.40985 277.95797 513.40985 317.95797 511.40985 332.95797 402.09718 328.78809 403.40985 313.95797" fill="#090814"/><path d="M554.40985,290.94489v60.53594c0,6.73742,5.46176,12.19917,12.19917,12.19917h77.75183c6.73742,0,12.19917-5.46176,12.19917-12.19917v-61.90072c0-6.82119-5.59314-12.31701-12.41327-12.19729l-77.75183,1.36478c-6.65293.11678-11.98507,5.54334-11.98507,12.19729Z" fill="#d6d6e3"/><path d="M615.41115,388.95801c-.02783,0-.05566-.00098-.08398-.00195l-104-4.28711c-1.10352-.04492-1.96143-.97656-1.91602-2.08008.0459-1.10449.97705-1.9541,2.08105-1.91602l104,4.28711c1.10352.04492,1.96143.97656,1.91602,2.08008-.04443,1.07617-.93066,1.91797-1.99707,1.91797Z" fill="#090814"/><path d="M638.41115,411.25879c-.0332,0-.06689-.00098-.10107-.00293l-127-6.33008c-1.10303-.05469-1.95312-.99316-1.89795-2.09668.05469-1.10352.97705-1.96191,2.09717-1.89746l127,6.33008c1.10303.05469,1.95312.99316,1.89795,2.09668-.05322,1.06934-.93701,1.90039-1.99609,1.90039Z" fill="#090814"/><path d="M621.41164,439.95801c-.04346,0-.08691-.00098-.13086-.00391l-124-8c-1.10205-.07129-1.93799-1.02246-1.86719-2.125.07129-1.10254,1.02686-1.92969,2.125-1.86719l124,8c1.10205.07129,1.93799,1.02246,1.86719,2.125-.06836,1.05859-.94824,1.87109-1.99414,1.87109Z" fill="#090814"/><circle cx="465.90985" cy="264.45797" r="8.5" fill="#090814"/><ellipse cx="396.40985" cy="187.95797" rx="3" ry="4" fill="#d6d6e3"/><ellipse cx="410.40985" cy="186.95797" rx="3" ry="4" fill="#d6d6e3"/><ellipse cx="422.40985" cy="185.95797" rx="3" ry="4" fill="#d6d6e3"/><path d="M678.81251,27c1.98352,0,3.59729,1.62109,3.59729,3.61377v63.37988c0,1.88428-1.41528,3.43115-3.29199,3.59814l-85.99927,7.66309c-.11133.01025-.22168.01514-.33118.01514-1.93237,0-3.54761-1.57666-3.60071-3.51416l-1.59314-58.15137c-.05005-1.82812,1.27612-3.40674,3.08521-3.67285l87.59277-12.8916c.1803-.02686.3623-.04004.54102-.04004M678.81251,23c-.37024,0-.74512.02686-1.12378.08252l-87.59241,12.8916c-3.81445.56104-6.60693,3.88574-6.50134,7.73975l1.59314,58.15137c.11389,4.15527,3.5249,7.40479,7.59924,7.40479.22705,0,.45557-.01025.68628-.03076l85.99915-7.66309c3.927-.3501,6.93701-3.64014,6.93701-7.58252V30.61377c0-4.2627-3.474-7.61377-7.59729-7.61377h0Z" fill="#d6d6e3"/><path d="M606.40724,61.95801c-.99756,0-1.86084-.74512-1.98291-1.76074-.13281-1.09668.64893-2.09277,1.74561-2.22461l58-7c1.09326-.13477,2.09326.64844,2.2251,1.74609.13281,1.09668-.64893,2.09277-1.74561,2.22461l-58,7c-.08154.00977-.16211.01465-.24219.01465Z" fill="#d6d6e3"/><path d="M606.40724,78.90039c-1.01904,0-1.89014-.77539-1.98877-1.81055-.10449-1.09961.70215-2.07617,1.80176-2.18066l52-4.94238c1.09717-.09863,2.07617.70215,2.18066,1.80176s-.70215,2.07617-1.80176,2.18066l-52,4.94238c-.06445.00586-.12842.00879-.19189.00879Z" fill="#d6d6e3"/><path d="M524.49989,4c1.98352,0,3.59729,1.62109,3.59729,3.61377v63.37988c0,1.88428-1.41528,3.43115-3.29199,3.59814l-85.99927,7.66309c-.11133.01025-.22168.01514-.33118.01514-1.93237,0-3.54761-1.57666-3.60071-3.51416l-1.59314-58.15137c-.05005-1.82812,1.27612-3.40674,3.08521-3.67285l87.59277-12.8916c.1803-.02686.3623-.04004.54102-.04004M524.49989,0c-.37024,0-.74512.02686-1.12378.08252l-87.59241,12.8916c-3.81445.56104-6.60693,3.88574-6.50134,7.73975l1.59314,58.15137c.11389,4.15527,3.5249,7.40479,7.59924,7.40479.22705,0,.45557-.01025.68628-.03076l85.99915-7.66309c3.927-.3501,6.93701-3.64014,6.93701-7.58252V7.61377c0-4.2627-3.474-7.61377-7.59729-7.61377h0Z" fill="#d6d6e3"/><path d="M452.09462,38.95801c-.99756,0-1.86084-.74512-1.98291-1.76074-.13281-1.09668.64893-2.09277,1.74561-2.22461l58-7c1.09326-.13477,2.09326.64844,2.2251,1.74609.13281,1.09668-.64893,2.09277-1.74561,2.22461l-58,7c-.08154.00977-.16211.01465-.24219.01465Z" fill="#d6d6e3"/><path d="M452.09462,55.90039c-1.01904,0-1.89014-.77539-1.98877-1.81055-.10449-1.09961.70215-2.07617,1.80176-2.18066l52-4.94238c1.09717-.09863,2.07617.70215,2.18066,1.80176s-.70215,2.07617-1.80176,2.18066l-52,4.94238c-.06445.00586-.12842.00879-.19189.00879Z" fill="#d6d6e3"/><polygon points="164.06416 583.34819 372.40985 647.95797 554.40985 585.84979 348.40985 544.95797 164.06416 583.34819" fill="#d6d6e3"/><polygon points="315.40985 561.95797 352.40985 552.95797 436.57461 571.46559 398.40985 583.34819 315.40985 561.95797" fill="#fff"/><polygon points="402.40985 590.85298 323.40985 614.95797 378.40985 632.95797 453.40985 604.95797 402.40985 590.85298" fill="#fff"/><path d="M342.82368,436.24076l-167.32222,89.15785-32.17034-47.43578,174.86391-87.70758c3.64657-12.7663,13.25103-24.84968,27.28203-32.36433,24.55064-13.14867,53.27389-7.33701,64.1556,12.98075,10.88163,20.3178-.19906,47.44737-24.74977,60.59608-14.03108,7.51469-29.41198,8.81231-42.05921,4.77302Z" fill="#ed9da0"/><path d="M108.40985,396.95797l-8,24s19,20.28725,0,31.64363l67-8.64363s27.12401-20.00542,29.06201-3.50271c0,0,33.93799-22.49729,40.93799-8.49729,0,0-20.07249,43.40586,11.46376,65.70293l-41.96376,18.86878-29.89001,20.22884-138.60999,20.19945" fill="#26a4f2"/><path d="M464.7671,425.68457c-.35059,0-.70361-.0166-1.05908-.05078l-57.14062-5.48438c-5.97754-.57324-10.46094-5.91113-9.99463-11.89844l3.68311-47.25195c.47168-6.04199,5.78662-10.5957,11.81836-10.19922l58.62061,4.0498c3.03174.20996,5.77734,1.60742,7.72998,3.93555,1.95312,2.32812,2.85205,5.27344,2.53125,8.29492l-5.16357,48.68652c-.60059,5.66406-5.43652,9.91797-11.02539,9.91797ZM402.74855,361.19336l2.49268.19434-3.68311,47.25195c-.25635,3.28711,2.20508,6.21777,5.48682,6.5332l57.14062,5.48438c3.31152.31934,6.28467-2.11133,6.63525-5.41797l5.16357-48.68652c.17578-1.65918-.31787-3.27637-1.39014-4.55371-1.07227-1.27832-2.57959-2.0459-4.24414-2.16113l-58.62061-4.0498c-3.31592-.21973-6.22949,2.28125-6.48828,5.59961l-2.49268-.19434Z" fill="#26a4f2"/><polygon points="402.40985 412.95797 424.40985 390.95797 431.40985 400.95797 448.40985 381.95797 470.73937 412.95797 469.40985 423.95797 403.40985 418.80504 402.40985 412.95797" fill="#26a4f2"/></svg>