<?xml version="1.0" encoding="utf-8"?>
<svg xmlns="http://www.w3.org/2000/svg" height="512pt" version="1.1" viewBox="0 0 512 512" width="512pt">
<path d="M 0.00 0.00 L 512.00 0.00 L 512.00 512.00 L 0.00 512.00 L 0.00 0.00 Z" fill="transparent" opacity="1.00" stroke="transparent" stroke-width="0.25"/>
<path d="M 87.27 105.36 C 90.65 103.50 95.36 106.14 95.13 110.08 C 95.54 113.83 91.24 116.46 87.91 115.10 C 83.46 114.08 83.16 107.05 87.27 105.36 Z" fill="#4f4f4f" opacity="1.00" stroke="#4f4f4f" stroke-width="0.25"/>
<path d="M 417.32 105.57 C 420.63 103.42 425.30 106.18 425.25 110.04 C 425.73 114.07 420.60 117.00 417.31 114.73 C 413.79 113.00 414.20 107.52 417.32 105.57 Z" fill="#404040" opacity="1.00" stroke="#404040" stroke-width="0.25"/>
<path d="M 208.75 105.85 C 238.47 106.10 268.19 105.84 297.91 105.96 C 297.87 110.88 298.43 115.89 297.69 120.75 C 297.28 120.84 296.46 121.01 296.05 121.10 C 266.95 121.14 237.86 121.04 208.76 121.14 C 208.80 116.04 208.90 110.94 208.75 105.85 Z" fill="#454545" opacity="1.00" stroke="#454545" stroke-width="0.25"/>
<path d="M 87.09 108.23 C 88.05 106.55 90.96 106.42 92.07 107.99 C 93.46 109.28 93.24 111.74 91.77 112.89 C 90.33 113.82 88.66 113.08 87.14 112.89 C 86.78 111.37 85.82 109.62 87.09 108.23 Z" fill="#ffffff" opacity="1.00" stroke="#ffffff" stroke-width="0.25"/>
<path d="M 416.85 109.92 C 416.72 106.05 423.30 106.15 423.25 109.95 C 423.74 112.21 421.51 112.94 420.01 113.90 C 418.48 112.99 416.26 112.16 416.85 109.92 Z" fill="#ffffff" opacity="1.00" stroke="#ffffff" stroke-width="0.25"/>
<path d="M 210.65 107.86 C 239.11 107.80 267.57 107.88 296.03 107.82 C 296.11 111.64 296.08 115.45 296.01 119.27 C 267.58 119.17 239.14 119.12 210.71 119.29 C 210.66 115.48 210.67 111.67 210.65 107.86 Z" fill="#ffffff" opacity="1.00" stroke="#ffffff" stroke-width="0.25"/>
<path d="M 76.07 113.55 L 77.08 113.18 L 77.87 113.73 C 78.07 202.43 77.88 291.15 77.92 379.85 C 77.41 380.27 76.41 381.09 75.91 381.51 C 76.17 292.19 75.85 202.86 76.07 113.55 Z" fill="#404040" opacity="1.00" stroke="#404040" stroke-width="0.25"/>
<path d="M 434.16 122.00 C 434.23 118.83 433.71 115.53 434.94 112.50 C 436.88 114.55 435.96 117.52 436.15 120.04 C 436.09 183.36 436.14 246.69 436.12 310.01 C 436.00 333.91 436.34 357.82 435.94 381.71 C 337.65 381.67 239.36 381.71 141.06 381.69 C 119.35 381.57 97.62 381.95 75.91 381.51 C 76.41 381.09 77.41 380.27 77.92 379.85 C 196.65 379.85 315.39 379.77 434.13 379.89 C 434.20 293.93 434.14 207.96 434.16 122.00 Z" fill="#464646" opacity="1.00" stroke="#464646" stroke-width="0.25"/>
<path d="M 99.58 136.84 C 106.73 136.36 113.90 136.75 121.05 136.60 C 123.09 136.73 125.49 136.06 127.12 137.68 C 118.48 138.76 109.65 138.07 100.95 138.10 C 100.61 137.78 99.93 137.15 99.58 136.84 Z" fill="#0c0c0c" opacity="1.00" stroke="#0c0c0c" stroke-width="0.25"/>
<path d="M 170.52 136.59 C 178.71 136.68 186.90 136.62 195.09 136.58 C 197.28 135.41 197.33 139.30 195.13 138.24 C 186.89 138.18 178.66 138.15 170.43 138.26 L 170.52 136.59 Z" fill="#090909" opacity="1.00" stroke="#090909" stroke-width="0.25"/>
<path d="M 241.46 136.61 C 250.13 136.72 258.79 136.57 267.46 136.61 C 267.59 136.99 267.85 137.75 267.98 138.13 C 259.15 138.32 250.32 138.08 241.50 138.28 L 241.46 136.61 Z" fill="#080808" opacity="1.00" stroke="#080808" stroke-width="0.25"/>
<path d="M 311.75 138.01 C 312.57 136.98 313.61 136.52 314.89 136.63 C 322.94 136.72 331.00 136.47 339.05 136.72 C 338.88 137.10 338.55 137.86 338.39 138.23 C 329.51 138.04 320.61 138.50 311.75 138.01 Z" fill="#0c0c0c" opacity="1.00" stroke="#0c0c0c" stroke-width="0.25"/>
<path d="M 383.67 138.09 C 383.99 137.75 384.63 137.06 384.95 136.71 C 393.60 136.60 402.29 136.51 410.94 136.75 L 410.80 138.13 C 401.76 138.20 392.71 138.34 383.67 138.09 Z" fill="#0a0a0a" opacity="1.00" stroke="#0a0a0a" stroke-width="0.25"/>
<path d="M 218.02 144.01 C 218.19 142.38 217.66 140.41 218.91 139.11 C 220.71 140.04 219.74 142.41 220.03 144.01 C 219.93 213.38 220.06 282.76 219.97 352.13 C 219.48 352.13 218.49 352.13 218.00 352.13 C 217.99 282.75 218.05 213.38 218.02 144.01 Z" fill="#585858" opacity="1.00" stroke="#585858" stroke-width="0.25"/>
<path d="M 289.19 147.01 C 289.16 144.24 289.07 141.43 289.76 138.72 C 291.47 140.01 290.92 142.22 291.04 144.02 C 290.97 213.50 291.03 282.98 290.99 352.46 C 289.51 352.25 288.91 351.43 289.16 350.00 C 289.15 282.33 289.20 214.67 289.19 147.01 Z" fill="#585857" opacity="1.00" stroke="#585857" stroke-width="0.25"/>
<path d="M 360.02 140.87 C 360.31 140.32 360.89 139.22 361.18 138.68 C 361.65 140.41 361.88 142.20 361.86 144.01 C 361.70 189.35 361.88 234.69 361.80 280.03 C 361.66 285.53 362.06 291.06 361.62 296.55 C 361.22 296.80 360.43 297.32 360.04 297.58 C 359.94 245.34 360.00 193.10 360.02 140.87 Z" fill="#5d5d5d" opacity="1.00" stroke="#5d5d5d" stroke-width="0.25"/>
<path d="M 156.21 157.26 C 174.11 157.00 192.02 157.08 209.92 157.21 C 210.43 171.52 210.11 185.85 210.10 200.17 C 192.13 200.17 174.17 200.29 156.21 200.14 C 156.10 185.85 156.12 171.56 156.21 157.26 Z" fill="#3a3930" opacity="1.00" stroke="#3a3930" stroke-width="0.25"/>
<path d="M 298.21 158.14 C 316.26 157.79 334.32 158.15 352.38 157.96 C 353.50 164.58 352.65 171.34 352.92 178.03 C 352.67 185.71 353.47 193.47 352.46 201.10 C 334.51 200.99 316.55 200.85 298.61 201.17 C 297.59 198.22 298.07 195.05 297.99 192.00 C 298.13 180.71 297.73 169.42 298.21 158.14 Z" fill="#4d4d4d" opacity="1.00" stroke="#4d4d4d" stroke-width="0.25"/>
<path d="M 157.95 158.89 C 174.84 159.12 191.74 158.82 208.64 159.05 C 208.37 172.21 208.59 185.37 208.49 198.54 C 191.67 198.74 174.85 198.48 158.03 198.66 C 157.82 185.41 158.03 172.15 157.95 158.89 Z" fill="#fff5da" opacity="1.00" stroke="#fff5da" stroke-width="0.25"/>
<path d="M 299.93 160.00 C 316.95 159.99 333.98 160.00 351.00 160.00 C 351.00 173.11 351.00 186.23 351.00 199.34 C 333.99 199.00 316.97 199.11 299.96 199.29 C 299.95 186.19 300.00 173.10 299.93 160.00 Z" fill="#ffffff" opacity="1.00" stroke="#ffffff" stroke-width="0.25"/>
<path d="M 368.42 160.04 C 386.40 159.62 404.39 159.89 422.38 159.88 C 422.68 172.35 422.50 184.84 422.43 197.32 C 404.40 197.20 386.36 197.67 368.35 197.09 C 368.45 184.74 368.30 172.39 368.42 160.04 Z" fill="#302d24" opacity="1.00" stroke="#302d24" stroke-width="0.25"/>
<path d="M 370.12 161.37 C 387.04 161.41 403.96 161.40 420.88 161.37 C 420.97 172.83 421.03 184.29 420.89 195.76 C 403.96 195.81 387.03 195.77 370.11 195.76 C 369.90 184.30 369.97 172.83 370.12 161.37 Z" fill="#fff5da" opacity="1.00" stroke="#fff5da" stroke-width="0.25"/>
<path d="M 101.21 171.20 C 113.81 171.09 126.43 171.08 139.02 171.20 C 139.07 171.63 139.15 172.48 139.19 172.90 C 126.51 173.02 113.78 173.18 101.10 172.84 C 101.13 172.43 101.19 171.61 101.21 171.20 Z" fill="#4a4a4a" opacity="1.00" stroke="#4a4a4a" stroke-width="0.25"/>
<path d="M 88.34 173.43 C 91.40 172.49 95.10 174.64 95.21 177.98 C 95.93 182.24 90.45 185.76 86.98 183.08 C 83.19 180.87 84.14 174.51 88.34 173.43 Z" fill="#3e3e3e" opacity="1.00" stroke="#3e3e3e" stroke-width="0.25"/>
<path d="M 88.00 175.89 C 89.38 174.48 91.20 175.45 92.60 176.27 C 92.82 176.98 93.24 178.41 93.46 179.13 C 92.38 180.12 91.70 182.27 89.91 182.00 C 86.85 182.24 85.23 177.49 88.00 175.89 Z" fill="#fbfbfb" opacity="1.00" stroke="#fbfbfb" stroke-width="0.25"/>
<path d="M 101.16 189.80 C 101.29 189.53 101.55 189.00 101.68 188.73 C 114.01 188.76 126.35 188.60 138.67 188.81 L 139.44 190.27 C 126.85 190.25 114.26 190.25 101.68 190.28 L 101.16 189.80 Z" fill="#0a0a0a" opacity="1.00" stroke="#0a0a0a" stroke-width="0.25"/>
<path d="M 368.34 209.21 C 368.99 207.85 370.82 208.60 371.99 208.36 C 388.73 208.30 405.48 208.50 422.23 208.27 C 422.91 212.14 422.54 216.08 422.59 219.99 C 422.62 230.47 422.58 240.94 422.63 251.42 C 410.11 252.11 397.52 251.51 384.98 251.72 C 379.38 251.48 373.70 252.23 368.16 251.20 C 368.43 237.21 368.05 223.20 368.34 209.21 Z" fill="#4f4d45" opacity="1.00" stroke="#4f4d45" stroke-width="0.25"/>
<path d="M 370.09 210.20 C 387.02 209.94 403.96 210.09 420.90 210.10 C 420.96 223.38 420.99 236.66 420.91 249.94 C 403.94 249.87 386.98 249.98 370.01 249.91 C 370.07 236.67 369.94 223.43 370.09 210.20 Z" fill="#fff5da" opacity="1.00" stroke="#fff5da" stroke-width="0.25"/>
<path d="M 99.36 211.35 C 134.58 211.28 169.80 211.41 205.02 211.27 C 206.24 211.44 208.91 210.79 208.47 212.97 C 208.50 226.32 208.72 239.69 208.32 253.03 C 173.21 252.99 138.11 253.00 103.01 253.02 C 101.79 253.07 100.61 252.93 99.45 252.60 C 99.01 250.43 99.17 248.20 99.17 246.01 C 99.35 234.45 99.05 222.90 99.36 211.35 Z" fill="#4e4c42" opacity="1.00" stroke="#4e4c42" stroke-width="0.25"/>
<path d="M 225.52 211.60 C 243.87 211.15 262.25 211.41 280.61 211.43 C 281.12 233.29 280.70 255.18 280.83 277.04 C 280.65 283.81 281.18 290.60 280.49 297.35 C 262.16 297.15 243.82 297.30 225.49 297.30 C 225.49 268.74 225.53 240.17 225.52 211.60 Z" fill="#413e34" opacity="1.00" stroke="#413e34" stroke-width="0.25"/>
<path d="M 101.09 213.06 C 136.35 213.08 171.61 213.03 206.87 213.08 C 206.89 225.72 206.84 238.37 206.87 251.01 C 171.58 250.98 136.29 251.01 101.00 251.00 C 101.04 238.35 100.91 225.70 101.09 213.06 Z" fill="#fff5da" opacity="1.00" stroke="#fff5da" stroke-width="0.25"/>
<path d="M 227.13 213.16 C 244.45 212.91 261.77 213.15 279.08 213.03 C 278.89 240.61 279.10 268.20 278.98 295.78 C 261.70 295.58 244.42 295.63 227.14 295.78 C 227.16 268.24 227.14 240.70 227.13 213.16 Z" fill="#fff5da" opacity="1.00" stroke="#fff5da" stroke-width="0.25"/>
<path d="M 87.29 226.43 C 90.49 224.69 95.27 227.18 95.14 230.97 C 95.51 234.64 91.28 237.46 87.94 236.06 C 83.62 234.94 83.45 228.27 87.29 226.43 Z" fill="#3f3f3f" opacity="1.00" stroke="#3f3f3f" stroke-width="0.25"/>
<path d="M 88.26 228.27 C 90.63 226.98 93.87 229.50 92.93 232.09 C 92.43 234.66 88.21 235.40 87.11 232.86 C 85.89 231.31 86.91 229.32 88.26 228.27 Z" fill="#fdfdfd" opacity="1.00" stroke="#fdfdfd" stroke-width="0.25"/>
<path d="M 298.53 233.86 C 316.36 234.25 334.19 233.77 352.02 234.09 C 352.20 254.08 352.14 274.07 352.06 294.05 C 334.12 294.37 316.17 294.13 298.23 294.18 C 298.03 276.47 298.19 258.76 298.08 241.05 C 298.02 238.64 298.16 236.23 298.53 233.86 Z" fill="#3d3b32" opacity="1.00" stroke="#3d3b32" stroke-width="0.25"/>
<path d="M 299.94 235.79 C 316.82 235.91 333.71 235.53 350.59 236.00 C 350.40 254.85 350.53 273.71 350.50 292.56 C 333.68 292.67 316.86 292.52 300.05 292.66 C 299.78 273.71 299.92 254.74 299.94 235.79 Z" fill="#fff5da" opacity="1.00" stroke="#fff5da" stroke-width="0.25"/>
<path d="M 156.18 303.14 C 156.35 289.63 155.75 276.09 156.49 262.61 C 172.99 262.89 189.50 262.66 206.00 262.69 C 207.16 262.97 209.95 261.99 209.84 263.98 C 209.99 277.02 210.02 290.08 209.79 303.13 C 191.92 303.33 174.04 303.25 156.18 303.14 Z" fill="#353535" opacity="1.00" stroke="#353535" stroke-width="0.25"/>
<path d="M 157.97 264.21 C 174.65 264.36 191.34 264.35 208.03 264.21 C 208.20 276.68 208.29 289.17 207.96 301.64 C 191.34 301.53 174.71 301.48 158.09 301.65 C 157.73 289.18 157.98 276.69 157.97 264.21 Z" fill="#ffffff" opacity="1.00" stroke="#ffffff" stroke-width="0.25"/>
<path d="M 368.71 263.99 C 386.56 264.21 404.42 264.00 422.28 264.08 C 422.76 276.34 422.66 288.65 422.34 300.92 C 405.92 301.12 389.49 300.91 373.07 301.02 C 371.50 300.98 369.91 301.03 368.40 300.58 C 368.06 293.06 368.38 285.52 368.28 278.00 C 368.40 273.33 367.92 268.62 368.71 263.99 Z" fill="#464646" opacity="1.00" stroke="#464646" stroke-width="0.25"/>
<path d="M 370.09 266.04 C 387.02 265.99 403.95 265.95 420.88 266.06 C 420.91 277.02 420.89 287.98 420.91 298.95 C 403.96 299.16 387.00 298.97 370.04 299.04 C 370.08 288.04 370.00 277.04 370.09 266.04 Z" fill="#ffffff" opacity="1.00" stroke="#ffffff" stroke-width="0.25"/>
<path d="M 89.48 271.34 C 95.27 270.45 101.13 271.24 106.95 271.08 C 116.97 270.76 127.00 271.28 137.03 270.98 C 139.18 270.88 141.34 271.03 143.47 271.31 C 143.23 291.29 143.46 311.27 143.33 331.26 C 125.39 331.23 107.44 331.24 89.50 331.25 C 89.52 311.28 89.61 291.31 89.48 271.34 Z" fill="#151515" opacity="1.00" stroke="#151515" stroke-width="0.25"/>
<path d="M 91.11 272.37 C 108.02 272.58 124.93 272.56 141.84 272.41 C 141.84 291.52 141.88 310.63 141.78 329.74 C 124.91 329.68 108.03 329.67 91.16 329.75 C 91.04 310.63 91.15 291.50 91.11 272.37 Z" fill="#ffffff" opacity="1.00" stroke="#ffffff" stroke-width="0.25"/>
<path d="M 298.15 304.08 C 316.12 303.91 334.09 303.94 352.06 304.05 C 352.14 318.07 352.18 332.09 352.04 346.11 C 352.32 348.40 349.33 347.42 348.02 347.72 C 331.34 347.37 314.62 348.10 297.95 347.32 C 298.31 332.91 297.74 318.49 298.15 304.08 Z" fill="#4e4c43" opacity="1.00" stroke="#4e4c43" stroke-width="0.25"/>
<path d="M 300.01 305.79 C 316.85 305.91 333.71 305.44 350.55 305.99 C 350.33 319.26 350.42 332.54 350.43 345.81 C 333.62 346.11 316.80 345.86 299.98 345.96 C 300.02 332.56 299.98 319.18 300.01 305.79 Z" fill="#fff5da" opacity="1.00" stroke="#fff5da" stroke-width="0.25"/>
<path d="M 156.18 311.99 C 174.13 311.87 192.08 311.89 210.03 311.95 C 210.08 325.84 210.25 339.74 209.92 353.63 C 192.05 353.69 174.19 353.72 156.33 353.67 C 155.84 339.79 156.18 325.88 156.18 311.99 Z" fill="#504441" opacity="1.00" stroke="#504441" stroke-width="0.25"/>
<path d="M 158.12 313.43 C 174.73 313.60 191.34 313.63 207.95 313.39 C 208.79 326.22 208.08 339.14 208.29 352.00 C 191.53 351.98 174.76 352.00 158.00 352.00 C 158.07 339.14 157.85 326.28 158.12 313.43 Z" fill="#ffcbc5" opacity="1.00" stroke="#ffcbc5" stroke-width="0.25"/>
<path d="M 228.80 316.15 C 245.98 316.08 263.17 315.77 280.34 316.29 C 279.98 316.66 279.25 317.40 278.88 317.77 C 262.67 318.23 246.45 317.67 230.23 318.06 C 230.30 328.39 230.28 338.72 230.24 349.06 C 246.46 349.19 262.68 348.94 278.89 349.21 C 279.28 349.59 280.05 350.36 280.43 350.74 C 263.21 351.28 245.95 350.95 228.71 350.91 C 228.69 339.32 228.52 327.73 228.80 316.15 Z" fill="#434343" opacity="1.00" stroke="#434343" stroke-width="0.25"/>
<path d="M 278.88 317.77 C 279.25 317.40 279.98 316.66 280.34 316.29 C 280.49 327.77 280.40 339.26 280.43 350.74 C 280.05 350.36 279.28 349.59 278.89 349.21 C 278.88 338.73 278.86 328.25 278.88 317.77 Z" fill="#111111" opacity="1.00" stroke="#111111" stroke-width="0.25"/>
<path d="M 230.23 318.06 C 246.45 317.67 262.67 318.23 278.88 317.77 C 278.86 328.25 278.88 338.73 278.89 349.21 C 262.68 348.94 246.46 349.19 230.24 349.06 C 230.28 338.72 230.30 328.39 230.23 318.06 Z" fill="#ffffff" opacity="1.00" stroke="#ffffff" stroke-width="0.25"/>
<text x="256" y="100" font-family="Arial" font-size="40" fill="#40aff4" text-anchor="middle">OneKanban</text>
</svg>